<svg id="x-icon" data-name="x icon" xmlns="http://www.w3.org/2000/svg" viewBox="0 0 1025 1025"><defs><style>.cls-1{stroke:#231f20;stroke-miterlimit:10;}</style></defs><path class="cls-1" d="M702.77,512,997.41,217.36a90.78,90.78,0,0,0,0-128.38L935,26.59a90.78,90.78,0,0,0-128.38,0L512,321.23,217.36,26.59A90.78,90.78,0,0,0,89,26.59L26.59,89a90.78,90.78,0,0,0,0,128.38L321.23,512,26.59,806.64a90.78,90.78,0,0,0,0,128.38L89,997.41a90.78,90.78,0,0,0,128.38,0L512,702.77,806.64,997.41a90.78,90.78,0,0,0,128.38,0L997.41,935a90.78,90.78,0,0,0,0-128.38Z" transform="translate(0.5 0.5)"/></svg>
